PathFileType	4	(X/Y/Z)
DataRate	CameraRate	NumFrames	NumMarkers	Units	OrigDataRate	OrigDataStartFrame	OrigNumFrames
120	120	4	142	mm	120	60	473	
Frame#	Time	 STRN			 T1			 T8			 T10			 T12			 C7			 CLAV			 LANK			 RANK			 LANI			 RANI			 LASI			 RASI			 LPSI			 RPSI			 LSHO			 RSHO			 LTOE			 RTOE			 RHEE			 LHEE			 LKNE			 RKNE			 LKNI			 RKNI			 RIWR			 LIWR			 RELB			 LELB			 RELBIN			 LELBIN			 LOWR			 ROWR			 RCLAV			 LCLAV			 RFHD			 LBHD			 LFHD			 RBHD			 LMT1			 LMT5			 RMT1			 RMT5			 Tracking_L5			 Tracking_L4			 Tracking_L3			 Tracking_L2			 Tracking_L1			 Tracking_T11			 Tracking_T9			 Tracking_T7			 Tracking_T6			 Tracking_T5			 Tracking_T4			 Tracking_T3			 Tracking_T2			 rthumb			 rindex			 rmiddle			 rring			 rpinky			 lthumb			 lindex			 lmiddle			 lring			 lpinky			 ROOT			 Spine1			 Spine2			 Spine3			 LHIPJ			 RHIPJ			 LKJC			 RKJC			 LAJC			 RAJC			 LFOOT			 RFOOT			 NECK			 LCOL			 RCOL			 HEAD			 LSHOULDER			 RSHOULDER			 LELC			 RELC			 LWRIST			 RWRIST			 left_index1			 left_index2			 left_index3			 left_middle1			 left_middle2			 left_middle3			 left_pinky1			 left_pinky2			 left_pinky3			 left_ring1			 left_ring2			 left_ring3			 left_thumb1			 left_thumb2			 left_thumb3			 right_index1			 right_index2			 right_index3			 right_middle1			 right_middle2			 right_middle3			 right_pinky1			 right_pinky2			 right_pinky3			 right_ring1			 right_ring2			 right_ring3			 right_thumb1			 right_thumb2			 right_thumb3			 MASI			 MPSI			 MHIPJ			 CENTER			 Virtual_LWRIST			 Virtual_RWRIST			 Virtual_LAJC			 Virtual_RAJC			 Virtual_LKJC			 Virtual_RKJC			 Virtual_LELC			 Virtual_RELC			 Virtual_Ground_RAJC			 Virtual_Ground_LAJC			 Virtual_Ground_RFOOT			 Virtual_Ground_LFOOT			 Virtual_Ground_RTOE			 Virtual_Ground_LTOE			 Virtual_Ground_RMT1			 Virtual_Ground_LMT1			 Virtual_Ground_RMT5			 Virtual_Ground_LMT5			 Virtual_Ground_RHEE			 Virtual_Ground_LHEE		
		X1	Y1	Z1	X2	Y2	Z2	X3	Y3	Z3	X4	Y4	Z4	X5	Y5	Z5	X6	Y6	Z6	X7	Y7	Z7	X8	Y8	Z8	X9	Y9	Z9	X10	Y10	Z10	X11	Y11	Z11	X12	Y12	Z12	X13	Y13	Z13	X14	Y14	Z14	X15	Y15	Z15	X16	Y16	Z16	X17	Y17	Z17	X18	Y18	Z18	X19	Y19	Z19	X20	Y20	Z20	X21	Y21	Z21	X22	Y22	Z22	X23	Y23	Z23	X24	Y24	Z24	X25	Y25	Z25	X26	Y26	Z26	X27	Y27	Z27	X28	Y28	Z28	X29	Y29	Z29	X30	Y30	Z30	X31	Y31	Z31	X32	Y32	Z32	X33	Y33	Z33	X34	Y34	Z34	X35	Y35	Z35	X36	Y36	Z36	X37	Y37	Z37	X38	Y38	Z38	X39	Y39	Z39	X40	Y40	Z40	X41	Y41	Z41	X42	Y42	Z42	X43	Y43	Z43	X44	Y44	Z44	X45	Y45	Z45	X46	Y46	Z46	X47	Y47	Z47	X48	Y48	Z48	X49	Y49	Z49	X50	Y50	Z50	X51	Y51	Z51	X52	Y52	Z52	X53	Y53	Z53	X54	Y54	Z54	X55	Y55	Z55	X56	Y56	Z56	X57	Y57	Z57	X58	Y58	Z58	X59	Y59	Z59	X60	Y60	Z60	X61	Y61	Z61	X62	Y62	Z62	X63	Y63	Z63	X64	Y64	Z64	X65	Y65	Z65	X66	Y66	Z66	X67	Y67	Z67	X68	Y68	Z68	X69	Y69	Z69	X70	Y70	Z70	X71	Y71	Z71	X72	Y72	Z72	X73	Y73	Z73	X74	Y74	Z74	X75	Y75	Z75	X76	Y76	Z76	X77	Y77	Z77	X78	Y78	Z78	X79	Y79	Z79	X80	Y80	Z80	X81	Y81	Z81	X82	Y82	Z82	X83	Y83	Z83	X84	Y84	Z84	X85	Y85	Z85	X86	Y86	Z86	X87	Y87	Z87	X88	Y88	Z88	X89	Y89	Z89	X90	Y90	Z90	X91	Y91	Z91	X92	Y92	Z92	X93	Y93	Z93	X94	Y94	Z94	X95	Y95	Z95	X96	Y96	Z96	X97	Y97	Z97	X98	Y98	Z98	X99	Y99	Z99	X100	Y100	Z100	X101	Y101	Z101	X102	Y102	Z102	X103	Y103	Z103	X104	Y104	Z104	X105	Y105	Z105	X106	Y106	Z106	X107	Y107	Z107	X108	Y108	Z108	X109	Y109	Z109	X110	Y110	Z110	X111	Y111	Z111	X112	Y112	Z112	X113	Y113	Z113	X114	Y114	Z114	X115	Y115	Z115	X116	Y116	Z116	X117	Y117	Z117	X118	Y118	Z118	X119	Y119	Z119	X120	Y120	Z120	X121	Y121	Z121	X122	Y122	Z122	X123	Y123	Z123	X124	Y124	Z124	X125	Y125	Z125	X126	Y126	Z126	X127	Y127	Z127	X128	Y128	Z128	X129	Y129	Z129	X130	Y130	Z130	X131	Y131	Z131	X132	Y132	Z132	X133	Y133	Z133	X134	Y134	Z134	X135	Y135	Z135	X136	Y136	Z136	X137	Y137	Z137	X138	Y138	Z138	X139	Y139	Z139	X140	Y140	Z140	X141	Y141	Z141	X142	Y142	Z142

60	0.4917	271.650553	-421.647370	1126.641154	277.375698	-233.073965	1408.681512	276.399136	-147.547752	1216.108561	275.142103	-149.257079	1163.161635	272.598445	-157.560393	1109.438419	278.040558	-251.023501	1423.449397	272.376090	-376.874030	1329.152465	364.445478	-166.583195	71.856700	170.878768	-185.090512	65.421723	305.704474	-165.067688	98.592661	230.906904	-199.288115	91.123246	391.898334	-357.284069	867.123604	121.986896	-342.752397	870.614469	331.758171	-132.967472	938.729346	209.825441	-128.673971	943.211734	406.609684	-294.247091	1375.162363	142.236888	-291.036516	1375.913978	314.489275	-333.634436	-0.687757	175.869673	-362.451345	-2.017119	231.001094	-130.338818	16.246220	326.597095	-92.911400	26.483675	432.704538	-382.600099	428.942174	68.328828	-372.300386	429.842502	323.319525	-382.345259	426.505655	180.847600	-390.453547	427.291840	-346.191496	-443.890274	1077.734113	908.367157	-370.601177	1026.270866	-155.229598	-270.515114	1146.248341	684.707701	-254.361421	1122.176647	-110.402822	-307.467818	1073.147058	639.432847	-299.618304	1056.080222	901.722312	-324.510038	990.339816	-361.412019	-395.954013	1043.146372	196.513891	-351.778805	1345.587492	350.128293	-355.664074	1344.959736	217.294484	-413.640797	1605.641365	337.822646	-301.886469	1641.351938	318.421543	-429.015517	1605.841160	238.262102	-285.327286	1640.677691	321.645409	-282.363802	24.518749	387.950063	-259.812474	1.328430	179.507211	-313.105643	21.465680	112.985730	-274.377853	-0.903526	269.497991	-146.687716	979.333937	269.278705	-155.671120	1004.600883	269.826859	-162.801877	1033.972144	270.036370	-164.428160	1059.201479	271.159917	-161.738470	1083.904028	274.197727	-153.331563	1135.566831	276.083171	-147.535369	1190.496445	276.603162	-149.291828	1238.610029	277.425259	-157.449305	1278.056502	277.943820	-169.191360	1309.669375	277.551621	-188.920617	1351.573110	277.149171	-202.296287	1374.596834	277.104765	-216.677561	1392.495513	-419.772118	-546.292305	1002.228260	-466.259450	-533.730149	988.219798	-474.356085	-512.836456	972.608805	-462.168306	-493.037075	967.296481	-453.947812	-465.147674	963.419735	1000.776410	-443.887204	942.638338	1024.770617	-425.609022	918.287039	1024.822712	-407.099336	902.074993	1008.080244	-392.092764	901.254773	993.122816	-365.324527	900.115490	262.538701	-271.524280	874.207556	271.006286	-226.719216	998.606741	277.728289	-273.276478	1124.394178	275.464803	-287.255526	1175.745845	322.102845	-258.406848	790.398121	197.308123	-261.642396	784.765542	389.746070	-377.690643	433.346182	112.535059	-374.713689	430.326194	319.487303	-167.555287	69.997393	216.784075	-199.085340	65.623306	357.678771	-277.048647	-9.652295	140.555099	-301.994890	-6.711283	268.418878	-302.298665	1386.506319	350.591034	-296.419889	1290.401220	195.792779	-287.854344	1293.583751	271.752656	-358.607709	1462.543249	482.627898	-273.799270	1273.608565	71.604729	-280.837953	1282.348990	661.287010	-281.394124	1088.089228	-128.816843	-292.199373	1110.127926	905.178130	-349.568635	1001.454592	-357.123941	-423.182368	1050.106168	1002.037525	-392.870098	979.672253	1028.239131	-405.269980	963.583708	1028.259873	-414.513141	942.190051	1011.995316	-371.690333	969.498813	1034.084320	-379.851133	947.841525	1032.519221	-390.401512	925.572634	987.869501	-332.764596	949.435055	997.682512	-337.645233	932.206333	996.799111	-348.350346	915.591717	1001.212120	-348.791480	958.929956	1019.914389	-360.463768	939.140499	1017.185450	-373.658448	918.585777	937.520146	-392.613530	985.884190	954.700410	-416.014820	972.767115	977.292717	-429.560333	965.612650	-438.406914	-494.381607	1046.825051	-464.125603	-513.055861	1034.859300	-466.255873	-521.465123	1013.028502	-456.763536	-475.765854	1039.078355	-479.933351	-489.663005	1021.613717	-479.790419	-499.261230	999.008775	-448.975235	-431.938380	1014.522552	-459.414214	-439.278007	998.616815	-458.297640	-449.251086	981.657505	-455.499858	-450.367510	1026.626468	-474.320680	-466.093928	1009.984374	-471.869916	-477.553397	988.211989	-374.744147	-475.296825	1040.963888	-385.689646	-502.841830	1027.860165	-404.004067	-522.952497	1021.892190	256.942615	-350.018233	868.869036	270.791806	-130.820721	940.970540	259.705484	-260.024622	787.581831	263.867211	-240.419477	904.919788	905.044734	-347.555608	1008.305341	-353.801757	-419.922143	1060.440242	335.074976	-165.825441	85.224681	200.892836	-192.189313	78.272484	378.012031	-382.472679	427.723914	124.588214	-381.376967	428.567171	662.070274	-276.989862	1089.128435	-132.816210	-288.991466	1109.697700	200.892836	-711.902976	78.272484	335.074976	-711.902976	85.224681	140.555099	-711.902976	-6.711283	357.678771	-711.902976	-9.652295	175.869673	-711.902976	-2.017119	314.489275	-711.902976	-0.687757	179.507211	-711.902976	21.465680	321.645409	-711.902976	24.518749	112.985730	-711.902976	-0.903526	387.950063	-711.902976	1.328430	231.001094	-711.902976	16.246220	326.597095	-711.902976	26.483675
61	0.5000	272.680521	-423.300296	1137.814879	278.967977	-233.454585	1418.596983	277.896136	-148.551211	1225.767851	276.568383	-150.460094	1172.667146	273.961782	-159.115747	1118.844151	279.801250	-251.342922	1433.392644	273.753285	-377.712041	1339.514494	366.732150	-168.787956	72.961539	168.937787	-185.951859	67.594081	307.798892	-166.985869	100.105554	229.107127	-200.066209	93.823940	393.256724	-358.159781	875.219345	123.744547	-343.899846	878.782034	332.982779	-134.624138	948.615253	211.317733	-130.606338	953.036249	407.471657	-294.685066	1386.411548	144.097194	-291.229129	1386.945844	314.813584	-334.203273	-2.046135	176.033676	-361.673057	-3.451135	230.062336	-130.488843	20.145807	328.403831	-94.591938	28.772149	432.630360	-376.497328	435.625136	70.076257	-366.601378	436.499357	323.095232	-376.222342	433.260620	182.788774	-384.865850	433.593959	-349.965841	-443.805814	1102.263689	912.075639	-371.375173	1046.453357	-156.910628	-270.334929	1162.063956	689.044654	-253.050387	1136.523128	-113.531798	-308.855504	1088.948369	643.595159	-299.511641	1071.567655	904.980063	-330.124944	1004.666448	-365.527958	-397.280753	1065.588593	197.879925	-352.437496	1356.246710	351.562291	-356.576353	1355.653524	218.439788	-414.510012	1615.174651	338.913500	-303.112924	1651.720524	319.552511	-430.028677	1615.784764	239.419073	-286.415279	1650.764465	323.138714	-283.688158	24.001036	389.466226	-261.438400	0.561271	178.694844	-312.866747	21.018360	112.513304	-274.141103	-1.918342	270.800442	-148.677766	988.916218	270.583689	-157.689214	1014.038324	271.119028	-164.815784	1043.291807	271.319658	-166.300952	1068.497062	272.470057	-163.478062	1093.234539	275.604814	-154.728174	1145.026922	277.536809	-148.600906	1200.098395	278.126150	-150.269613	1248.311400	278.886497	-158.369929	1287.822366	279.372334	-169.879779	1319.495201	278.963238	-189.258933	1361.443043	278.598040	-202.521026	1384.516954	278.590053	-216.937721	1402.457714	-430.404454	-547.306240	1035.771012	-476.725250	-534.024596	1023.049235	-484.960049	-514.090002	1007.082462	-472.564191	-495.286763	1000.337839	-463.922054	-468.038321	994.704545	1016.489148	-446.107954	981.989205	1041.083813	-429.116905	956.724882	1040.870667	-413.489133	938.262343	1023.398042	-400.691271	934.244454	1007.140636	-376.040310	928.101897	264.024109	-272.722036	883.547902	272.314519	-228.754133	1008.257270	279.074848	-274.878025	1134.202242	276.807457	-288.297832	1185.702682	323.677540	-258.996844	799.899399	198.891804	-262.279689	794.097900	389.374644	-371.741891	440.368086	114.649832	-369.098246	437.598318	321.711659	-170.085117	71.760207	214.627430	-200.119704	68.583280	359.167129	-277.968228	-10.396864	140.252054	-301.342368	-7.939961	269.684672	-302.820891	1396.497130	351.892143	-297.157228	1300.409317	197.090313	-288.626999	1303.511143	273.625731	-359.121799	1472.511053	484.088510	-273.833901	1286.002398	72.797135	-280.982286	1293.977857	665.719271	-280.615598	1103.359580	-131.322235	-292.856038	1126.191378	908.732772	-353.788525	1018.351555	-361.137062	-424.356669	1073.503733	1010.264993	-390.770435	1010.949731	1038.712859	-402.895868	998.999178	1041.405201	-415.036917	979.289591	1019.418836	-370.430738	998.550475	1043.959022	-379.539818	980.155885	1045.259118	-393.237382	959.653437	994.247139	-337.092280	971.077740	1005.940199	-343.454301	955.594122	1007.414222	-356.441319	940.741897	1007.883310	-350.334495	983.873725	1029.166102	-362.947613	967.576861	1029.361725	-379.114479	949.066401	945.628703	-395.491421	1011.959076	965.711236	-418.858916	1003.866434	989.852011	-431.175143	1000.609040	-444.487840	-493.031859	1078.339458	-471.350402	-511.475265	1068.768740	-474.917144	-520.922482	1047.558784	-462.700337	-474.268615	1070.608258	-487.183899	-488.306224	1055.165291	-488.558441	-499.051660	1033.125043	-455.017716	-432.026565	1043.385625	-466.520995	-439.839989	1028.470516	-466.624469	-450.700581	1012.027740	-461.393982	-449.595302	1056.779265	-481.544286	-465.553790	1042.021275	-480.623156	-478.187144	1020.786643	-380.721599	-476.290077	1068.087339	-393.156558	-504.112363	1057.063341	-412.340909	-523.915291	1053.154469	258.500636	-351.029813	877.000690	272.150256	-132.615238	950.825751	261.284672	-260.638267	796.998650	265.325446	-241.822526	913.913220	908.527851	-350.750059	1025.559902	-357.746899	-420.543283	1083.926141	337.265521	-167.886913	86.533546	199.022457	-193.009034	80.709010	377.862796	-376.359835	434.442878	126.432516	-375.733614	435.046658	666.319907	-276.281014	1104.045391	-135.221213	-289.595217	1125.506163	199.022457	-711.902976	80.709010	337.265521	-711.902976	86.533546	140.252054	-711.902976	-7.939961	359.167129	-711.902976	-10.396864	176.033676	-711.902976	-3.451135	314.813584	-711.902976	-2.046135	178.694844	-711.902976	21.018360	323.138714	-711.902976	24.001036	112.513304	-711.902976	-1.918342	389.466226	-711.902976	0.561271	230.062336	-711.902976	20.145807	328.403831	-711.902976	28.772149
62	0.5083	273.591191	-424.859047	1149.100900	280.141652	-233.441621	1428.954363	279.027641	-149.794176	1235.698462	277.810365	-151.976675	1182.684779	275.362581	-160.871461	1129.036307	281.051457	-251.383722	1443.921924	274.750918	-378.183186	1350.628257	369.299144	-171.090811	74.770436	166.605249	-187.231690	70.666894	310.295403	-168.984950	102.320656	226.805314	-201.267213	97.274348	394.605011	-359.187663	883.817255	125.827491	-345.286727	887.563527	334.397495	-136.465237	958.956182	212.932214	-132.615700	963.429451	408.175170	-294.480264	1397.579789	145.455733	-291.027069	1398.280025	315.477908	-334.903359	-3.297579	176.087528	-360.973865	-5.323242	228.434235	-130.678400	25.197256	330.775380	-96.273392	32.015491	432.699442	-369.721472	443.080813	71.678266	-360.753000	444.298118	323.147625	-369.511127	440.635681	184.352547	-379.068375	440.977186	-353.632033	-443.173230	1127.812505	918.172479	-370.413452	1070.975661	-157.885313	-269.961834	1177.368999	691.801906	-251.639217	1151.187181	-116.314590	-310.444653	1104.292274	648.251057	-299.186498	1085.656524	911.833823	-329.834729	1028.421760	-369.473398	-397.556007	1090.089679	198.998585	-352.620900	1367.453456	352.594793	-356.906652	1366.894603	219.695881	-415.243149	1625.338197	340.216964	-304.054856	1662.342548	320.786834	-430.729628	1625.779510	240.727067	-287.319601	1661.553502	324.439287	-285.079449	23.866940	390.765220	-262.816459	0.424553	177.726761	-312.920928	20.667423	111.786634	-274.056315	-2.308976	272.414595	-150.670230	999.243259	272.196442	-159.669533	1024.301767	272.711813	-166.821420	1053.486466	272.843808	-168.262362	1078.717589	273.953587	-165.358424	1103.457332	276.927382	-156.387031	1155.138135	278.715044	-149.977267	1210.065842	279.219806	-151.394412	1258.222580	279.947072	-159.252360	1297.724962	280.426174	-170.521289	1329.471946	280.036330	-189.521223	1371.559381	279.698640	-202.630043	1394.733071	279.707789	-216.950879	1412.730575	-436.736047	-547.406912	1065.703273	-483.037531	-534.010053	1053.468943	-491.272211	-514.451146	1037.164569	-478.792012	-495.928466	1029.708624	-470.045626	-468.998760	1023.120642	1024.632931	-444.930375	1009.051681	1049.316645	-428.073585	983.902693	1049.237132	-412.691981	965.350866	1031.754494	-400.060683	960.889637	1015.444875	-375.690311	954.286993	265.656769	-273.979038	893.420517	273.883373	-230.708599	1018.377900	280.186296	-276.311547	1144.536018	277.877212	-289.483517	1196.098566	325.302064	-259.710014	809.857249	200.520843	-263.106793	804.024398	389.344275	-365.241289	447.846115	116.449907	-363.395691	445.592999	324.278116	-172.447085	74.065015	212.115362	-201.564014	72.256669	360.197514	-278.742015	-10.803413	139.821365	-300.674438	-8.886587	270.692170	-302.752614	1406.973600	352.927864	-297.673970	1310.877204	198.126614	-289.099157	1313.884258	274.818093	-359.248370	1482.832909	485.143751	-273.701966	1297.772884	73.747456	-281.165570	1305.821657	669.291198	-279.680759	1117.639065	-133.108795	-293.352634	1141.444206	915.461838	-353.246093	1042.643189	-365.224779	-424.422264	1098.709941	1017.408252	-389.419913	1037.202477	1046.133637	-401.442319	1025.825500	1049.222469	-413.804859	1006.312609	1026.568651	-369.156957	1024.682879	1051.456332	-378.278524	1006.767511	1053.178191	-392.219603	986.461222	1001.519203	-336.388469	996.423841	1013.494730	-342.840284	981.195450	1015.300751	-355.998635	966.531813	1015.078306	-349.348575	1009.585261	1036.708355	-361.976266	993.763685	1037.317753	-378.371179	975.463986	952.807426	-394.698352	1037.321448	973.208785	-417.987078	1029.820919	997.500718	-430.129498	1027.074575	-449.243784	-491.943389	1107.000113	-476.493418	-510.319233	1098.447800	-480.574071	-520.296752	1077.576041	-467.386544	-473.181903	1099.102616	-492.320299	-487.341940	1084.515572	-494.240046	-498.665810	1062.808037	-459.747672	-431.790441	1070.591569	-471.623421	-439.869195	1056.116223	-472.166240	-451.171011	1039.982319	-466.065228	-448.911190	1084.580064	-486.675560	-465.024173	1070.648313	-486.306190	-478.240550	1049.754500	-385.499656	-476.246953	1095.090508	-398.459911	-504.208803	1085.070372	-417.939961	-523.880959	1082.069039	260.216251	-352.237195	885.690391	273.664854	-134.540468	961.192816	262.911454	-261.408404	806.940824	266.940553	-243.388832	923.441604	915.003151	-350.124091	1049.698710	-361.552715	-420.364618	1108.951092	339.797273	-170.037881	88.545546	196.705282	-194.249451	83.970621	377.923533	-369.616300	441.858247	128.015406	-369.910687	442.637652	670.026481	-275.412858	1118.421853	-137.099952	-290.203243	1140.830636	196.705282	-711.902976	83.970621	339.797273	-711.902976	88.545546	139.821365	-711.902976	-8.886587	360.197514	-711.902976	-10.803413	176.087528	-711.902976	-5.323242	315.477908	-711.902976	-3.297579	177.726761	-711.902976	20.667423	324.439287	-711.902976	23.866940	111.786634	-711.902976	-2.308976	390.765220	-711.902976	0.424553	228.434235	-711.902976	25.197256	330.775380	-711.902976	32.015491
63	0.5167	274.470210	-426.345259	1160.773873	281.345397	-233.237654	1439.563513	280.099899	-150.895357	1245.908856	278.978050	-153.365523	1192.985654	276.665092	-162.521780	1139.527559	282.352239	-251.208842	1454.706907	275.776207	-378.494769	1362.050891	372.010440	-173.381984	77.209517	163.763002	-188.853085	74.361846	312.932611	-171.154082	105.240628	223.886490	-202.950329	101.515219	396.161586	-359.913915	892.943919	128.158167	-346.508950	896.552980	335.824966	-138.068765	969.707072	214.573562	-134.459972	974.033833	408.875465	-294.192255	1409.031510	146.841988	-290.694445	1409.848809	316.161394	-335.320234	-4.280044	176.134974	-360.134184	-7.245256	226.569921	-131.166190	31.472012	333.087891	-97.972222	36.185071	433.033198	-362.662911	451.123267	72.607495	-355.058372	452.737123	323.453367	-362.648547	448.523849	185.272768	-373.526067	448.819518	-356.633991	-442.424268	1152.992964	923.601925	-369.152874	1094.726324	-158.886582	-269.568056	1192.651629	694.575250	-250.228554	1165.782332	-118.897758	-312.109202	1119.904757	652.794242	-299.270123	1100.100875	918.313503	-329.315096	1051.327109	-372.917145	-397.920400	1114.078403	200.132445	-352.698356	1378.992796	353.630304	-357.108533	1378.445029	220.881060	-415.918976	1635.799170	341.405958	-305.018872	1673.537254	321.947664	-431.385487	1636.135817	241.913930	-288.235694	1672.908306	325.864553	-286.300540	24.085449	392.106533	-263.925850	0.551270	176.566303	-312.997580	20.426916	111.064754	-273.854136	-2.839698	273.982733	-152.474165	1009.890079	273.738176	-161.486626	1034.879804	274.214983	-168.688610	1063.987374	274.271995	-170.108065	1089.237452	275.342494	-167.132676	1113.970041	278.162211	-157.933369	1165.539622	279.828459	-151.217923	1220.311284	280.251563	-152.376220	1268.419027	280.956060	-159.997851	1307.922602	281.450242	-171.016604	1339.739442	281.094640	-189.618945	1381.953120	280.798942	-202.555463	1405.233502	280.836254	-216.777459	1423.281312	-442.037016	-547.797203	1096.003532	-488.360792	-534.458995	1084.347248	-496.740907	-515.432894	1067.677617	-484.291703	-497.223288	1059.393167	-475.571185	-470.637739	1051.687360	1032.018781	-444.044679	1036.543012	1057.137609	-427.475125	1011.795163	1057.512760	-412.389755	993.173242	1040.188909	-399.887264	988.135099	1024.155736	-375.739545	980.898440	267.444581	-275.043726	903.622627	275.380701	-232.453793	1028.832316	281.271935	-277.694643	1155.140638	278.950781	-290.564477	1206.778884	327.211767	-260.212123	820.244610	202.446744	-263.783813	814.173996	389.564365	-358.485818	455.903083	117.629893	-357.861996	454.237610	326.997459	-174.936578	77.075168	208.976850	-203.432947	76.707765	361.257285	-279.221207	-10.916008	139.446735	-299.852371	-9.908510	271.700531	-302.636951	1417.723536	353.965819	-298.111528	1321.624756	199.164540	-289.504260	1324.536324	276.046604	-359.051615	1493.630886	486.184567	-273.550332	1309.692740	74.725248	-281.296313	1317.782283	672.851622	-279.066026	1132.156253	-134.816229	-293.915182	1156.875014	921.625674	-352.403969	1066.056013	-368.720144	-424.511224	1123.454571	1023.764372	-388.375431	1063.826680	1052.814722	-400.462657	1053.381801	1056.459188	-413.057953	1034.115195	1033.214211	-368.245244	1051.308036	1058.598757	-377.522975	1034.187675	1060.901761	-391.710073	1014.110684	1008.864760	-335.895181	1021.975517	1021.263003	-342.503875	1007.158279	1023.495555	-355.838150	992.713988	1022.091866	-348.655671	1035.659432	1044.171333	-361.421824	1020.587444	1045.313597	-378.040612	1002.516627	959.196210	-393.821090	1062.263608	979.846358	-417.147487	1055.608511	1004.231334	-429.259360	1053.671956	-453.040868	-491.034031	1135.773659	-480.613142	-509.448588	1128.422976	-485.234946	-520.056248	1107.979059	-471.213371	-472.385973	1127.678394	-496.573538	-486.799687	1114.110351	-499.063939	-498.797625	1092.827082	-463.901371	-431.994826	1097.685337	-476.158708	-440.435082	1083.744287	-477.147669	-452.243656	1067.999125	-470.033675	-448.605269	1112.354994	-491.071671	-464.985639	1099.409223	-491.269678	-478.867888	1078.949451	-389.462203	-476.255745	1121.957421	-402.854413	-504.416406	1113.133192	-422.544926	-524.012744	1111.199260	262.159877	-353.211433	894.748449	275.199264	-136.264369	971.870452	264.829256	-261.997968	817.209303	268.679570	-244.737901	933.309451	920.957714	-349.233985	1073.026717	-364.775568	-420.172334	1133.535683	342.471525	-172.268033	91.225073	193.824746	-195.901707	87.938532	378.243282	-362.655729	449.823558	128.940132	-364.292219	450.778320	673.684746	-274.749339	1132.941604	-138.892170	-290.838629	1156.278193	193.824746	-711.902976	87.938532	342.471525	-711.902976	91.225073	139.446735	-711.902976	-9.908510	361.257285	-711.902976	-10.916008	176.134974	-711.902976	-7.245256	316.161394	-711.902976	-4.280044	176.566303	-711.902976	20.426916	325.864553	-711.902976	24.085449	111.064754	-711.902976	-2.839698	392.106533	-711.902976	0.551270	226.569921	-711.902976	31.472012	333.087891	-711.902976	36.185071
